<?xml version="1.0" encoding="utf-8"?>
<svg id="master-artboard" viewBox="0 0 1400 980" version="1.1" xmlns="http://www.w3.org/2000/svg" x="0px" y="0px" width="1400px" height="980px" enable-background="new 0 0 1400 980">

<path fill="#FF6468" d="M524.8,586.5c16.1-20.5,55.1-27.8,55.1-27.8c2.5-0.8,5-1.6,7.4-2.4c26.3-8.6,49.2-17.8,57.5-23.5&#10;&#9;&#9;&#9;c8.3,9.6,21.7,22.7,41,29.7c0,0-2.9-13.6,5.9-28.8l5.7-1.9l3.1,0.9l3-0.9l5.7,1.9c8.8,15.1,9.2,28.1,9.2,28.1&#10;&#9;&#9;&#9;c19.2-7,29.3-19.5,37.6-29.1c8.3,5.7,31.6,15,58.1,23.7c2.2,0.7,4.5,1.4,6.7,2.2c0,0,39,7.3,55.1,27.8c0,0,15.6,34.5,21,94.2&#10;&#9;&#9;&#9;c46.9-48.9,75.8-115.3,75.8-188.4c0-150.4-121.9-272.3-272.3-272.3C549.9,219.9,428,341.8,428,492.2c0,73.5,29.2,140.2,76.5,189.2&#10;&#9;&#9;&#9;C509.9,598.8,524.8,586.5,524.8,586.5z" transform="matrix(1, 0, 0, 1, 0, 0)"/><path d="M504.5,683.2c-0.5,0-1-0.2-1.3-0.6c-49.7-51.4-77-119-77-190.4c0-151.2,123-274.1,274.1-274.1s274.1,123,274.1,274.1&#10;&#9;&#9;&#9;c0,71-27.1,138.4-76.3,189.7c-0.5,0.5-1.3,0.7-1.9,0.5c-0.7-0.2-1.2-0.9-1.2-1.6c-5.1-56.3-19.5-90.5-20.7-93.4&#10;&#9;&#9;&#9;c-15.6-19.6-53.5-26.9-53.9-26.9c-2.5-0.8-4.7-1.5-7-2.2c-26-8.4-48-17.3-57.2-23l-0.3,0.3c-8.2,9.5-18.4,21.3-37.1,28.1&#10;&#9;&#9;&#9;c-0.6,0.2-1.2,0.1-1.7-0.2c-0.5-0.3-0.8-0.9-0.8-1.5c0-0.1-0.5-12.4-8.6-26.7l-4.5-1.5l-2.5,0.8c-0.4,0.1-0.7,0.1-1.1,0l-2.5-0.8&#10;&#9;&#9;&#9;l-4.5,1.5c-7.1,12.6-5.7,24.1-5.4,26.4c0.1,0.2,0.2,0.5,0.2,0.8c0,1-0.8,1.8-1.9,1.8c-0.2,0-0.4,0-0.7-0.1&#10;&#9;&#9;&#9;c-14.8-5.4-28.1-14.9-40.7-29c-9.2,5.7-30.5,14.3-56.5,22.8c-2.5,0.8-4.9,1.6-7.4,2.4c-0.6,0.1-38.7,7.5-54.2,27.2&#10;&#9;&#9;&#9;c-0.1,0.1-0.2,0.2-0.3,0.3c-0.1,0.1-14.4,13.8-19.6,93.6c0,0.7-0.5,1.4-1.2,1.6C505,683.2,504.8,683.2,504.5,683.2z M700.3,221.8&#10;&#9;&#9;&#9;c-149.1,0-270.5,121.3-270.5,270.5c0,69.1,25.9,134.5,73.1,184.9c5.3-74.9,18.6-90.1,20.4-91.9c16.4-20.7,54.5-28,56.1-28.4&#10;&#9;&#9;&#9;c2.3-0.7,4.7-1.5,7.2-2.3c26.8-8.7,49.1-17.9,57-23.2c0.8-0.5,1.8-0.4,2.4,0.3c11.6,13.4,23.8,22.6,37.4,28.1&#10;&#9;&#9;&#9;c-0.4-5.1-0.1-15.5,6.5-26.9c0.2-0.4,0.6-0.7,1-0.8l5.7-1.9c0.4-0.1,0.8-0.1,1.1,0l2.5,0.8l2.5-0.8c0.4-0.1,0.8-0.1,1.1,0l5.7,1.9&#10;&#9;&#9;&#9;c0.4,0.1,0.8,0.4,1,0.8c6.7,11.6,8.7,21.9,9.2,26.5c16.4-6.6,25.7-17.4,33.3-26.2l1.3-1.5c0.6-0.7,1.7-0.8,2.4-0.3&#10;&#9;&#9;&#9;c8,5.4,30.6,14.6,57.7,23.4c2.2,0.7,4.5,1.4,6.7,2.2c1.4,0.3,39.7,7.6,56,28.4c0.1,0.1,0.2,0.2,0.2,0.4&#10;&#9;&#9;&#9;c0.2,0.3,15.1,33.8,20.7,90.7c46.8-50.2,72.5-115.5,72.5-184.2C970.8,343.1,849.4,221.8,700.3,221.8z" transform="matrix(1, 0, 0, 1, 0, 0)"/><path fill="#6D6E71" d="M654.2,518.6v-26.4l0,0c-9.2-10.2-17.1-24.2-20.3-43.2c0,0-23.8-6.4-22.5-45c0,0-0.9-19.3,15.1-11&#10;&#9;&#9;&#9;c0,0,0-0.2-0.1-0.6c6.5-22.5,19.3-57.5,48.1-47.9c16.1,3.2,28.9,25.7,41.8,28.9c26,2.9,44.2-15,59.3,7.1&#10;&#9;&#9;&#9;c-0.8,7.5-1.6,12.4-1.6,12.4c0.1-0.1,0.2-0.1,0.3-0.1c1-0.5,1.9-0.9,2.7-1.1c12.9-4.4,12.1,12.3,12.1,12.3&#10;&#9;&#9;&#9;c1.4,38.5-22.5,45-22.5,45c-3.2,19.1-11.1,33-20.3,43.2l0,0v26.4l9.5,14.2c8.3,5.7,31.6,15,58.1,23.7l-10.1-206.1&#10;&#9;&#9;&#9;c0,0-8.6-99.4-103.3-96.8c0,0,0,0,0,0c-94.7-2.6-103.3,96.8-103.3,96.8l-10.1,205.9c26.3-8.6,49.2-17.8,57.5-23.5L654.2,518.6z" transform="matrix(1, 0, 0, 1, 0, 0)"/><path d="M814,558.3c-0.2,0-0.4,0-0.6-0.1c-27.4-8.9-50.4-18.3-58.6-23.9c-0.2-0.1-0.4-0.3-0.5-0.5l-9.5-14.2&#10;&#9;&#9;&#9;c-0.2-0.3-0.3-0.7-0.3-1v-26.2c-0.1-0.5,0.1-1.1,0.4-1.5c10.4-11.5,17.1-25.7,19.9-42.3c0.1-0.7,0.6-1.3,1.3-1.5&#10;&#9;&#9;&#9;c0.9-0.3,22.4-6.6,21.1-43.1c0.1-2-0.2-7.3-2.7-9.8c-1.6-1.7-3.9-1.9-7-0.8c-0.8,0.3-1.6,0.6-2.5,1.1c-0.6,0.3-1.5,0.3-2.1-0.1&#10;&#9;&#9;&#9;c-0.6-0.4-1-1-0.9-1.7c0,0,0.8-4.6,1.5-11.6c-4.9-6.9-10.2-9.9-17.7-9.9c-4.3,0-9,0.9-13.9,1.9c-5.9,1.2-12.6,2.5-19.8,2.5&#10;&#9;&#9;&#9;c-2.1,0-4.2-0.1-6.2-0.3c-6.7-1.6-12.8-7.4-19.2-13.5c-7.2-6.8-14.6-13.8-22.7-15.4c-3.3-1.1-6.2-1.6-9-1.6&#10;&#9;&#9;&#9;c-20.5,0-30.8,27.1-36.8,47.7c0.1,0.2,0.1,0.4,0.1,0.6c0,1-0.8,1.8-1.9,1.8c-0.3,0-0.6-0.1-0.9-0.2c-4.5-2.3-7.8-2.5-9.8-0.4&#10;&#9;&#9;&#9;c-2.4,2.5-2.7,7.8-2.7,9.6c-1.3,36.8,20.9,43.2,21.1,43.3c0.7,0.2,1.2,0.8,1.3,1.5c2.8,16.6,9.5,30.8,19.8,42.3&#10;&#9;&#9;&#9;c0.4,0.4,0.5,1,0.5,1.5c0,0,0,0,0,0v26.1c0,0.4-0.1,0.7-0.3,1l-9.5,14.2c-0.1,0.2-0.3,0.4-0.5,0.5c-8.2,5.6-30.4,14.7-57.9,23.7&#10;&#9;&#9;&#9;c-0.6,0.2-1.2,0.1-1.7-0.3c-0.5-0.4-0.8-0.9-0.7-1.6l10.1-205.9c0.1-1.1,9.8-101.2,105.1-98.5c1.2,0,2.4-0.1,3.6-0.1&#10;&#9;&#9;&#9;c91.9,0,101.3,97.5,101.4,98.5l10.1,205.7c0.1,0.2,0.1,0.4,0.1,0.6C815.9,557.5,815.1,558.4,814,558.3&#10;&#9;&#9;&#9;C814,558.3,814,558.3,814,558.3z M757.2,531.5c7.9,5.3,29.2,14,54.8,22.4l-10-203.5c-0.3-3.9-9.5-97.6-101.4-95&#10;&#9;&#9;&#9;c-1.3,0-2.5-0.1-3.7-0.1c-88.5,0-97.4,91.3-97.8,95.1l-10,203.2c25.3-8.4,46.3-17,54.2-22.2l9-13.4v-25.2&#10;&#9;&#9;&#9;c-10.4-11.6-17.1-25.9-20.1-42.5c-5-1.9-23.9-11.3-22.7-46.4c0-0.2-0.3-8,3.7-12.2c2.8-2.9,6.8-3.4,11.9-1.4&#10;&#9;&#9;&#9;c6.3-21.6,17.4-49.3,40-49.3c3.2,0,6.6,0.6,10,1.7c8.9,1.8,16.7,9.1,24.2,16.3c6.1,5.8,11.9,11.2,17.4,12.6&#10;&#9;&#9;&#9;c1.6,0.2,3.6,0.3,5.5,0.3c6.8,0,13-1.2,19-2.4c5.2-1,10-2,14.6-2c8.9,0,15.5,3.7,21.1,12c0.2,0.4,0.4,0.8,0.3,1.2&#10;&#9;&#9;&#9;c-0.4,3.9-0.8,7.1-1.1,9.3c0,0,0.1,0,0.1,0c4.6-1.6,8.3-0.9,10.9,1.8c4,4.2,3.7,12,3.7,12.3c1.3,35-17.7,44.4-22.7,46.3&#10;&#9;&#9;&#9;c-3,16.6-9.7,30.9-20.1,42.5v25.2L757.2,531.5z" transform="matrix(1, 0, 0, 1, 0, 0)"/><path fill="#FFEBD5" d="M746.4,492.2c-19.9,21.9-46.1,26.4-46.1,26.4s-26.2-4.5-46.1-26.4l0,0v26.4l43.1,13.3l3.1,0.9l3-0.9&#10;&#9;&#9;&#9;l43.1-13.3L746.4,492.2L746.4,492.2z" transform="matrix(1, 0, 0, 1, 0, 0)"/><path d="M700.3,534.7c-0.2,0-0.4,0-0.5-0.1l-46.1-14.2c-0.8-0.2-1.3-0.9-1.3-1.8v-26.4c0-0.7,0.3-1.3,0.9-1.6&#10;&#9;&#9;&#9;c0.7-0.4,1.7-0.3,2.3,0.3c18,19.9,41.7,25.2,44.7,25.8c3-0.6,26.7-5.9,44.7-25.8c0.5-0.6,1.4-0.8,2.1-0.4c0.7,0.3,1.1,1,1.1,1.7&#10;&#9;&#9;&#9;v26.4c0,0.8-0.5,1.5-1.3,1.8l-46.1,14.2C700.7,534.6,700.5,534.7,700.3,534.7z M656,517.3l44.3,13.6l44.3-13.6v-20.5&#10;&#9;&#9;&#9;c-19.5,19.3-42.9,23.5-44,23.7c-0.2,0-0.4,0-0.6,0c-1-0.2-24.4-4.4-44-23.7V517.3z" transform="matrix(1, 0, 0, 1, 0, 0)"/><path d="M775.4,395.2L775.4,395.2c-0.8,0-1.5-0.3-2.2-0.9c-0.5-0.4-0.7-1-0.6-1.6s0.5-1.1,1-1.4c1-0.5,2-0.9,2.9-1.2&#10;&#9;&#9;&#9;c0.7-0.2,1.5,0,2,0.5c0.5,0.6,0.6,1.4,0.2,2.1C778.3,393.4,777.3,395.2,775.4,395.2z" transform="matrix(1, 0, 0, 1, 0, 0)"/><path fill="#FFEBD5" d="M789.2,404c0,0,0.8-16.7-12.1-12.3c-0.7,1.3-1.4,2.2-2.7,1.1c-0.1,0.1-0.2,0.1-0.3,0.1&#10;&#9;&#9;&#9;c0,0,0.8-4.9,1.6-12.4c-15.1-22.1-33.3-4.2-59.3-7.1c-12.9-3.2-25.7-25.7-41.8-28.9c-28.8-9.6-41.6,25.4-48.1,47.9&#10;&#9;&#9;&#9;c0.1,0.3,0.1,0.6,0.1,0.6c-16-8.3-15.1,11-15.1,11c-1.4,38.5,22.5,45,22.5,45c3.2,19.1,11.1,33,20.3,43.2&#10;&#9;&#9;&#9;c19.9,21.9,46.1,26.4,46.1,26.4s26.2-4.5,46.1-26.4c9.2-10.2,17.1-24.2,20.3-43.2C766.7,449,790.5,442.6,789.2,404z" transform="matrix(1, 0, 0, 1, 0, 0)"/><path d="M700.3,520.5c-0.1,0-0.2,0-0.3,0c-1.1-0.2-27.1-4.8-47.1-27c-10.6-11.7-17.5-26.2-20.6-43.1c-5-1.9-23.9-11.3-22.7-46.4&#10;&#9;&#9;&#9;c0-0.2-0.3-8,3.7-12.2c2.8-2.9,6.8-3.4,11.9-1.4c6.3-21.6,17.4-49.3,40-49.3c3.2,0,6.6,0.6,10,1.7c8.9,1.8,16.7,9.1,24.2,16.3&#10;&#9;&#9;&#9;c6.1,5.8,11.9,11.2,17.4,12.6c1.6,0.2,3.6,0.3,5.5,0.3c6.8,0,13-1.2,19-2.4c5.2-1,10-2,14.6-2c8.9,0,15.5,3.7,21.1,12&#10;&#9;&#9;&#9;c0.2,0.4,0.4,0.8,0.3,1.2c-0.4,3.9-0.8,7.1-1.1,9.3c0,0,0.1,0,0.1,0c4.6-1.6,8.3-0.9,10.9,1.8c4,4.2,3.7,12,3.7,12.3&#10;&#9;&#9;&#9;c1.3,35-17.7,44.4-22.7,46.3c-3,16.8-9.9,31.3-20.6,43.1c-20.1,22.1-46,26.8-47.1,27C700.5,520.4,700.4,520.5,700.3,520.5z&#10;&#9;&#9;&#9; M619.6,392.8c-1.5,0-2.7,0.5-3.6,1.5c-2.4,2.5-2.7,7.8-2.7,9.6c-1.3,36.6,20.2,43,21.1,43.3c0.7,0.2,1.2,0.8,1.3,1.5&#10;&#9;&#9;&#9;c2.8,16.6,9.5,30.8,19.8,42.3c18.1,19.9,41.8,25.2,44.7,25.8c3-0.6,26.7-5.9,44.7-25.8c10.4-11.5,17.1-25.7,19.8-42.3&#10;&#9;&#9;&#9;c0.1-0.7,0.6-1.3,1.3-1.5c0.9-0.3,22.4-6.6,21.1-43.1c0.1-2-0.2-7.3-2.7-9.8c-1.5-1.5-3.6-1.9-6.4-1c-0.5,0.9-1.4,1.9-2.9,1.9&#10;&#9;&#9;&#9;c-0.6,0-1.1-0.2-1.7-0.5c-0.2-0.1-0.4-0.1-0.6-0.3c-0.6-0.4-1-1-0.9-1.7c0,0,0.8-4.6,1.5-11.6c-4.9-6.9-10.2-9.9-17.7-9.9&#10;&#9;&#9;&#9;c-4.3,0-9,0.9-13.9,1.9c-5.9,1.2-12.6,2.5-19.8,2.5c-2.1,0-4.2-0.1-6.2-0.3c-6.7-1.6-12.8-7.4-19.2-13.5&#10;&#9;&#9;&#9;c-7.2-6.8-14.6-13.8-22.7-15.4c-3.3-1.1-6.2-1.6-9-1.6c-20.6,0-30.9,27.2-36.8,47.8l0,0.2c0.1,0.7-0.2,1.4-0.7,1.8&#10;&#9;&#9;&#9;c-0.6,0.4-1.3,0.5-1.9,0.1C623.4,393.4,621.3,392.8,619.6,392.8z" transform="matrix(1, 0, 0, 1, 0, 0)"/><path fill="#FFFFFF" d="M685.7,562.5c0,0-2.9-13.6,5.9-28.8l5.7-1.9l-43.1-13.3l-9.5,14.2C653.1,542.4,666.4,555.5,685.7,562.5z" transform="matrix(1, 0, 0, 1, 0, 0)"/><path d="M685.7,564.4c-0.2,0-0.4,0-0.6-0.1c-15.2-5.5-28.9-15.4-41.7-30.2c-0.5-0.6-0.6-1.5-0.1-2.2l9.5-14.2&#10;&#9;&#9;&#9;c0.5-0.7,1.3-1,2.1-0.7l43.1,13.3c0.8,0.2,1.3,0.9,1.3,1.7c0,0.8-0.5,1.5-1.3,1.8l-5.1,1.7c-7.9,14-5.3,26.7-5.3,26.8&#10;&#9;&#9;&#9;c0.1,0.7-0.1,1.3-0.6,1.8C686.6,564.2,686.1,564.4,685.7,564.4z M647,532.7c11.3,12.8,23.3,21.7,36.4,27.1&#10;&#9;&#9;&#9;c-0.4-5.1-0.1-15.5,6.5-26.9c0.2-0.4,0.6-0.7,1-0.8l0.3-0.1L655,520.8L647,532.7z" transform="matrix(1, 0, 0, 1, 0, 0)"/><path fill="#FFFFFF" d="M709.1,533.8c8.8,15.1,9.2,28.1,9.2,28.1c19.2-7,29.3-19.5,37.6-29.1l-9.5-14.2l-43.1,13.3L709.1,533.8z" transform="matrix(1, 0, 0, 1, 0, 0)"/><path d="M718.3,563.7c-0.4,0-0.7-0.1-1-0.3c-0.5-0.3-0.8-0.9-0.8-1.5c0-0.1-0.5-12.4-8.6-26.7l-5.1-1.7c-0.8-0.3-1.3-1-1.3-1.8&#10;&#9;&#9;&#9;c0-0.8,0.5-1.5,1.3-1.7l43.1-13.3c0.8-0.2,1.6,0.1,2.1,0.7l9.5,14.2c0.5,0.7,0.4,1.6-0.1,2.2l-1.3,1.5&#10;&#9;&#9;&#9;c-8.2,9.5-18.4,21.3-37.1,28.1C718.7,563.7,718.5,563.7,718.3,563.7z M709.4,532l0.3,0.1c0.4,0.1,0.8,0.4,1,0.8&#10;&#9;&#9;&#9;c6.7,11.6,8.7,21.9,9.2,26.5c16.4-6.6,25.7-17.4,33.3-26.2l0.4-0.5l-7.9-11.9L709.4,532z" transform="matrix(1, 0, 0, 1, 0, 0)"/><path d="M700.6,608.4c-8.3,0-15-6.7-15-15c0-8.3,6.7-15,15-15c8.3,0,15,6.7,15,15C715.6,601.7,708.9,608.4,700.6,608.4z&#10;&#9;&#9;&#9; M700.6,582.2c-6.2,0-11.3,5.1-11.3,11.3c0,6.2,5.1,11.3,11.3,11.3c6.2,0,11.3-5.1,11.3-11.3C711.9,587.2,706.9,582.2,700.6,582.2&#10;&#9;&#9;&#9;z" transform="matrix(1, 0, 0, 1, 0, 0)"/><path d="M700.6,670.3c-8.3,0-15-6.7-15-15c0-8.3,6.7-15,15-15c8.3,0,15,6.7,15,15C715.6,663.5,708.9,670.3,700.6,670.3z&#10;&#9;&#9;&#9; M700.6,644c-6.2,0-11.3,5.1-11.3,11.3c0,6.2,5.1,11.3,11.3,11.3c6.2,0,11.3-5.1,11.3-11.3C711.9,649.1,706.9,644,700.6,644z" transform="matrix(1, 0, 0, 1, 0, 0)"/><path d="M700.6,732.1c-8.3,0-15-6.7-15-15c0-8.3,6.7-15,15-15c8.3,0,15,6.7,15,15C715.6,725.4,708.9,732.1,700.6,732.1z&#10;&#9;&#9;&#9; M700.6,705.8c-6.2,0-11.3,5.1-11.3,11.3c0,6.2,5.1,11.3,11.3,11.3c6.2,0,11.3-5.1,11.3-11.3C711.9,710.9,706.9,705.8,700.6,705.8&#10;&#9;&#9;&#9;z" transform="matrix(1, 0, 0, 1, 0, 0)"/><path d="M700.6,670.3c-8.3,0-15-6.7-15-15c0-8.3,6.7-15,15-15c8.3,0,15,6.7,15,15C715.6,663.5,708.9,670.3,700.6,670.3z&#10;&#9;&#9;&#9; M700.6,644c-6.2,0-11.3,5.1-11.3,11.3c0,6.2,5.1,11.3,11.3,11.3c6.2,0,11.3-5.1,11.3-11.3C711.9,649.1,706.9,644,700.6,644z" transform="matrix(1, 0, 0, 1, 0, 0)"/><path d="M700.6,608.4c-8.3,0-15-6.7-15-15c0-8.3,6.7-15,15-15c8.3,0,15,6.7,15,15C715.6,601.7,708.9,608.4,700.6,608.4z&#10;&#9;&#9;&#9; M700.6,582.2c-6.2,0-11.3,5.1-11.3,11.3c0,6.2,5.1,11.3,11.3,11.3c6.2,0,11.3-5.1,11.3-11.3C711.9,587.2,706.9,582.2,700.6,582.2&#10;&#9;&#9;&#9;z" transform="matrix(1, 0, 0, 1, 0, 0)"/><path d="M700.6,732.1c-8.3,0-15-6.7-15-15c0-8.3,6.7-15,15-15c8.3,0,15,6.7,15,15C715.6,725.4,708.9,732.1,700.6,732.1z&#10;&#9;&#9;&#9; M700.6,705.8c-6.2,0-11.3,5.1-11.3,11.3c0,6.2,5.1,11.3,11.3,11.3c6.2,0,11.3-5.1,11.3-11.3C711.9,710.9,706.9,705.8,700.6,705.8&#10;&#9;&#9;&#9;z" transform="matrix(1, 0, 0, 1, 0, 0)"/><path d="M 530.200012 495.100006 H 562.100012 V 527.000006 H 530.200012 V 495.100006 Z" fill="#E35E63" transform="matrix(1, 0, 0, 1, 0, 0)"/><path d="M 837.400024 511 H 869.300024 V 542.9 H 837.400024 V 511 Z" fill="#E35E63" transform="matrix(1, 0, 0, 1, 0, 0)"/><path d="M 896.799988 511 H 928.699987 V 542.9 H 896.799988 V 511 Z" fill="#E35E63" transform="matrix(1, 0, 0, 1, 0, 0)"/><path d="M 530.200012 441.100006 H 562.100012 V 473.000006 H 530.200012 V 441.100006 Z" fill="#E35E63" transform="matrix(1, 0, 0, 1, 0, 0)"/><path d="M 472.700012 495.100006 H 504.600012 V 527.000006 H 472.700012 V 495.100006 Z" fill="#E35E63" transform="matrix(1, 0, 0, 1, 0, 0)"/><g transform="matrix(1, 0, 0, 1, 0, 0)">
			<path fill="#F8F299" d="M1171.8,194.4H945.9c-26.7,0-48.4,21.7-48.4,48.4v116.1l-67.2,82.7h115.6H960h211.7&#10;&#9;&#9;&#9;&#9;c26.7,0,48.4-21.7,48.4-48.4V242.8C1220.2,216.1,1198.5,194.4,1171.8,194.4z"/>
			<path d="M1171.8,443.4H830.3c-0.7,0-1.4-0.4-1.7-1c-0.3-0.6-0.2-1.4,0.2-2l66.7-82.2V242.8c0-27.7,22.5-50.2,50.2-50.2h225.9&#10;&#9;&#9;&#9;&#9;c27.7,0,50.3,22.5,50.3,50.2v150.3C1222,420.9,1199.5,443.4,1171.8,443.4z M834.2,439.7h337.6c25.7,0,46.6-20.9,46.6-46.6V242.8&#10;&#9;&#9;&#9;&#9;c0-25.7-20.9-46.6-46.6-46.6H945.9c-25.7,0-46.6,20.9-46.6,46.6v116.1c0,0.4-0.1,0.8-0.4,1.2L834.2,439.7z"/>
		</g><path d="M 938.599976 241.300003 H 1175.899979 V 265.200003 H 938.599976 V 241.300003 Z" fill="#C8DF8E" transform="matrix(1, 0, 0, 1, 0, 0)"/><path d="M1175.9,267.1H938.6c-1,0-1.8-0.8-1.8-1.8v-23.9c0-1,0.8-1.8,1.8-1.8h237.3c1,0,1.8,0.8,1.8,1.8v23.9&#10;&#9;&#9;&#9;&#9;C1177.8,266.3,1177,267.1,1175.9,267.1z M940.4,263.4h233.7v-20.2H940.4V263.4z" transform="matrix(1, 0, 0, 1, 0, 0)"/><path d="M 938.599976 295.899994 H 1175.899979 V 319.799994 H 938.599976 V 295.899994 Z" fill="#C8DF8E" transform="matrix(1, 0, 0, 1, 0, 0)"/><path d="M1175.9,321.7H938.6c-1,0-1.8-0.8-1.8-1.8v-23.9c0-1,0.8-1.8,1.8-1.8h237.3c1,0,1.8,0.8,1.8,1.8v23.9&#10;&#9;&#9;&#9;&#9;C1177.8,320.8,1177,321.7,1175.9,321.7z M940.4,318h233.7v-20.2H940.4V318z" transform="matrix(1, 0, 0, 1, 0, 0)"/><path d="M 993.800013 375.100006 A 27.6 27.6 0 0 1 966.200012 402.700006 A 27.6 27.6 0 0 1 938.600012 375.100006 A 27.6 27.6 0 0 1 966.200012 347.500006 A 27.6 27.6 0 0 1 993.800013 375.100006 Z" fill="#C8DF8E" transform="matrix(1, 0, 0, 1, 0, 0)"/><path d="M966.2,404.5c-16.2,0-29.4-13.2-29.4-29.4s13.2-29.4,29.4-29.4s29.4,13.2,29.4,29.4S982.4,404.5,966.2,404.5z&#10;&#9;&#9;&#9;&#9; M966.2,349.3c-14.2,0-25.8,11.6-25.8,25.8c0,14.2,11.6,25.8,25.8,25.8s25.8-11.6,25.8-25.8C992,360.9,980.4,349.3,966.2,349.3z" transform="matrix(1, 0, 0, 1, 0, 0)"/><path d="M 1084.900049 375.100006 A 27.6 27.6 0 0 1 1057.300049 402.700006 A 27.6 27.6 0 0 1 1029.700048 375.100006 A 27.6 27.6 0 0 1 1057.300049 347.500006 A 27.6 27.6 0 0 1 1084.900049 375.100006 Z" fill="#C8DF8E" transform="matrix(1, 0, 0, 1, 0, 0)"/><path d="M1057.3,404.5c-16.2,0-29.4-13.2-29.4-29.4s13.2-29.4,29.4-29.4s29.4,13.2,29.4,29.4S1073.5,404.5,1057.3,404.5z&#10;&#9;&#9;&#9;&#9; M1057.3,349.3c-14.2,0-25.8,11.6-25.8,25.8c0,14.2,11.6,25.8,25.8,25.8c14.2,0,25.8-11.6,25.8-25.8&#10;&#9;&#9;&#9;&#9;C1083,360.9,1071.5,349.3,1057.3,349.3z" transform="matrix(1, 0, 0, 1, 0, 0)"/><path d="M 1175.900049 375.100006 A 27.6 27.6 0 0 1 1148.300049 402.700006 A 27.6 27.6 0 0 1 1120.700048 375.100006 A 27.6 27.6 0 0 1 1148.300049 347.500006 A 27.6 27.6 0 0 1 1175.900049 375.100006 Z" fill="#C8DF8E" transform="matrix(1, 0, 0, 1, 0, 0)"/><path d="M1148.3,404.5c-16.2,0-29.4-13.2-29.4-29.4s13.2-29.4,29.4-29.4c16.2,0,29.4,13.2,29.4,29.4S1164.6,404.5,1148.3,404.5z&#10;&#9;&#9;&#9;&#9; M1148.3,349.3c-14.2,0-25.8,11.6-25.8,25.8c0,14.2,11.6,25.8,25.8,25.8c14.2,0,25.8-11.6,25.8-25.8&#10;&#9;&#9;&#9;&#9;C1174.1,360.9,1162.5,349.3,1148.3,349.3z" transform="matrix(1, 0, 0, 1, 0, 0)"/><path fill="#231F20" d="M919,99.6h-73.6c-1,0-1.8-0.8-1.8-1.8c0-1,0.8-1.8,1.8-1.8H919c1,0,1.8,0.8,1.8,1.8&#10;&#9;&#9;&#9;&#9;C920.8,98.8,920,99.6,919,99.6z" transform="matrix(1, 0, 0, 1, 0, 0)"/>
<path fill="#3DEBFF" d="M700.3,764.5c77.3,0,146.9-32.2,196.5-83.9c-5.4-59.7-21-94.2-21-94.2c-16.1-20.5-55.1-27.8-55.1-27.8&#10;&#9;&#9;&#9;c-2.3-0.7-4.5-1.4-6.7-2.2c-26.5-8.6-49.8-18-58.1-23.7c-8.3,9.6-18.4,22.1-37.6,29.1c0,0-0.4-13-9.2-28.1l-5.7-1.9l-3,0.9&#10;&#9;&#9;&#9;l-3.1-0.9l-5.7,1.9c-8.8,15.1-5.9,28.8-5.9,28.8c-19.3-7-32.6-20.1-41-29.7c-8.2,5.6-31.2,14.9-57.5,23.5&#10;&#9;&#9;&#9;c-2.4,0.8-4.9,1.6-7.4,2.4c0,0-39,7.3-55.1,27.8c0,0-14.9,12.4-20.2,94.9C554.1,732.6,623.4,764.5,700.3,764.5z M700.6,580.3&#10;&#9;&#9;&#9;c7.3,0,13.1,5.9,13.1,13.1c0,7.3-5.9,13.1-13.1,13.1s-13.1-5.9-13.1-13.1C687.5,586.2,693.4,580.3,700.6,580.3z M700.6,642.1&#10;&#9;&#9;&#9;c7.3,0,13.1,5.9,13.1,13.1c0,7.3-5.9,13.1-13.1,13.1s-13.1-5.9-13.1-13.1C687.5,648,693.4,642.1,700.6,642.1z M700.6,704&#10;&#9;&#9;&#9;c7.3,0,13.1,5.9,13.1,13.1c0,7.3-5.9,13.1-13.1,13.1s-13.1-5.9-13.1-13.1C687.5,709.9,693.4,704,700.6,704z" transform="matrix(1, 0, 0, 1, 0, 0)"/><path d="M700.3,766.3c-74.9,0-144.9-29.7-197.1-83.7c-0.4-0.4-0.5-0.9-0.5-1.4c5.1-78.5,18.9-94.3,20.7-96.1&#10;&#9;&#9;&#9;c16.4-20.7,54.5-28,56.1-28.4c2.3-0.7,4.7-1.5,7.2-2.3c26.8-8.7,49.1-17.9,57-23.2c0.8-0.5,1.8-0.4,2.4,0.3&#10;&#9;&#9;&#9;c11.6,13.4,23.8,22.6,37.4,28.1c-0.4-5.1-0.1-15.5,6.5-26.9c0.2-0.4,0.6-0.7,1-0.8l5.7-1.9c0.4-0.1,0.8-0.1,1.1,0l2.5,0.8l2.5-0.8&#10;&#9;&#9;&#9;c0.4-0.1,0.8-0.1,1.1,0l5.7,1.9c0.4,0.1,0.8,0.4,1,0.8c6.7,11.6,8.7,21.9,9.2,26.5c16.4-6.6,25.7-17.4,33.3-26.2l1.3-1.5&#10;&#9;&#9;&#9;c0.6-0.7,1.7-0.8,2.4-0.3c8,5.4,30.6,14.6,57.7,23.4c2.2,0.7,4.5,1.4,6.7,2.2c1.4,0.3,39.7,7.6,56,28.4c0.1,0.1,0.2,0.2,0.2,0.4&#10;&#9;&#9;&#9;c0.2,0.3,15.8,35.4,21.1,94.7c0,0.5-0.1,1.1-0.5,1.4C845.9,736.3,775.7,766.3,700.3,766.3z M506.4,680.7&#10;&#9;&#9;&#9;c51.4,52.9,120.2,82,193.9,82c74,0,143.1-29.4,194.6-82.7c-5.1-55.8-19.4-89.6-20.6-92.5c-15.6-19.6-53.5-26.9-53.9-26.9&#10;&#9;&#9;&#9;c-2.5-0.8-4.7-1.5-7-2.2c-26-8.4-48-17.3-57.2-23l-0.3,0.3c-8.2,9.5-18.4,21.3-37.1,28.1c-0.6,0.2-1.2,0.1-1.7-0.2&#10;&#9;&#9;&#9;c-0.5-0.3-0.8-0.9-0.8-1.5c0-0.1-0.5-12.4-8.6-26.7l-4.5-1.5l-2.5,0.8c-0.4,0.1-0.7,0.1-1.1,0l-2.5-0.8l-4.5,1.5&#10;&#9;&#9;&#9;c-7.9,14-5.3,26.7-5.3,26.8c0.1,0.7-0.1,1.3-0.6,1.8c-0.5,0.4-1.2,0.6-1.8,0.3c-14.8-5.4-28.1-14.9-40.7-29&#10;&#9;&#9;&#9;c-9.2,5.7-30.5,14.3-56.5,22.8c-2.5,0.8-4.9,1.6-7.4,2.4c-0.6,0.1-38.7,7.5-54.2,27.2c-0.1,0.1-0.2,0.2-0.3,0.3&#10;&#9;&#9;&#9;C525.8,588,511.6,601.5,506.4,680.7z M700.6,732.1c-8.3,0-15-6.7-15-15c0-8.3,6.7-15,15-15c8.3,0,15,6.7,15,15&#10;&#9;&#9;&#9;C715.6,725.4,708.9,732.1,700.6,732.1z M700.6,705.8c-6.2,0-11.3,5.1-11.3,11.3c0,6.2,5.1,11.3,11.3,11.3&#10;&#9;&#9;&#9;c6.2,0,11.3-5.1,11.3-11.3C711.9,710.9,706.9,705.8,700.6,705.8z M700.6,670.3c-8.3,0-15-6.7-15-15c0-8.3,6.7-15,15-15&#10;&#9;&#9;&#9;c8.3,0,15,6.7,15,15C715.6,663.5,708.9,670.3,700.6,670.3z M700.6,644c-6.2,0-11.3,5.1-11.3,11.3c0,6.2,5.1,11.3,11.3,11.3&#10;&#9;&#9;&#9;c6.2,0,11.3-5.1,11.3-11.3C711.9,649.1,706.9,644,700.6,644z M700.6,608.4c-8.3,0-15-6.7-15-15c0-8.3,6.7-15,15-15&#10;&#9;&#9;&#9;c8.3,0,15,6.7,15,15C715.6,601.7,708.9,608.4,700.6,608.4z M700.6,582.2c-6.2,0-11.3,5.1-11.3,11.3c0,6.2,5.1,11.3,11.3,11.3&#10;&#9;&#9;&#9;c6.2,0,11.3-5.1,11.3-11.3C711.9,587.2,706.9,582.2,700.6,582.2z" transform="matrix(1, 0, 0, 1, 0, 0)"/><g transform="matrix(1, 0, 0, 1, 364.8604431152344, 239.18603515625)">
			<path fill="#231F20" d="M153.1,305.7c-3.3,0-6.3-2.5-7.4-6c-10.3-33.6-15.8-68.5-16.4-103.8c-0.1-3.5-0.1-9.3,0-12.9&#10;&#9;&#9;&#9;&#9;c0.6-35.2,6.1-70.1,16.4-103.7c1.3-4.3,5.7-6.9,9.4-5.7l42.3,13.7c3.7,1.2,5.8,5.4,4.7,9.2c-3.8,12.4-6.9,25.2-9.1,38&#10;&#9;&#9;&#9;&#9;c-0.7,3.9-4.3,6.7-8.3,6.1l-20-3.2c-2-0.3-3.8,1.3-4.1,3.5c-2,14-3.1,28.4-3.3,42.5c-0.1,3.3-0.1,8.6,0,11.9&#10;&#9;&#9;&#9;&#9;c0.2,14.2,1.4,28.5,3.3,42.5c0.3,2.2,2.1,3.9,4.1,3.5l20-3.2c4.1-0.6,7.6,2.1,8.3,6.1c2.3,12.9,5.3,25.7,9.1,38&#10;&#9;&#9;&#9;&#9;c1.2,3.9-0.9,8-4.6,9.2l-42.3,13.7C154.5,305.6,153.8,305.7,153.1,305.7z M153.1,77c-1.7,0-3.3,1.4-3.9,3.4&#10;&#9;&#9;&#9;&#9;c-10.2,33.3-15.7,67.9-16.3,102.7c-0.1,3.5-0.1,9.2,0,12.7c0.6,34.9,6.1,69.4,16.3,102.8c0.7,2.3,2.9,3.9,4.7,3.3l42.3-13.7&#10;&#9;&#9;&#9;&#9;c1.9-0.6,2.9-2.7,2.3-4.6c-3.8-12.5-6.9-25.5-9.2-38.5c-0.3-1.9-2.2-3.4-4.1-3.1l-20,3.1c-3.9,0.6-7.7-2.4-8.3-6.7&#10;&#9;&#9;&#9;&#9;c-2-14.2-3.1-28.7-3.4-43c-0.1-3.3-0.1-8.7,0-12c0.2-14.3,1.4-28.8,3.4-43c0.6-4.2,4.3-7.3,8.3-6.7l20,3.2&#10;&#9;&#9;&#9;&#9;c1.9,0.3,3.8-1.1,4.1-3.1c2.3-13,5.4-25.9,9.2-38.5c0.6-2-0.4-4-2.3-4.6l-42.3-13.7C153.7,77,153.4,77,153.1,77z" style="fill: rgb(255, 244, 212);"/>
		</g></svg>